# xmcd
#
# Track frame offsets:
#	150
#	874
#	16871
#	36979
#	53255
#	67080
#	84314
#	99827
#	119052
#	135068
#	151096
#	163808
#	181962
#	201142
#	216720
#	226342
#	241734
#	261269
#	278515
#	293978
#	307548
#	324046
#	341525
#
# Disc length: 4782 seconds
#
# Revision: 1
# Processed by: cddbd v1.5.2PL0 Copyright (c) Steve Scherf et al.
# Submitted via: audiograbber 1.83.01
#
DISCID=2212ac17
DTITLE=Country Hotdisc - Country Hotdisc 055
DYEAR=1900
DGENRE=
TTITLE0=Intro - Intro
TTITLE1=I Can´t Remember  - The Thorns
TTITLE2=Truth No 2 - Dixie Chicks
TTITLE3=Rodeo Life  - Delon
TTITLE4=Livin´ On Borrow Time  - Travis Tritt
TTITLE5=This Is My Lazy Days - Troy Cook Jr
TTITLE6=What Kind Of Woman Would I Be - Tammy Cochran
TTITLE7=Real Good Man  - Tim Mcgraw
TTITLE8=Smoke and Mirrors  - The Mickeys
TTITLE9=Ome, Ore Bar - Luke Guy Reed
TTITLE10=If Kisses Could Talk  - Vernon Oxford
TTITLE11=Back To Memphis  - Billy Ray Cyrus
TTITLE12=Waycross Stables  - Brooklyn Cowboys
TTITLE13=Slow Down For A While  - Blue Orchid 
TTITLE14=I´m Just Fool Enough  - Yvonne Deaney
TTITLE15=Clear Texas Sky  - The Clines
TTITLE16=Cincinatti Town  - Fred Leonard
TTITLE17=Partying In The Doghouse  - Kerr Donnelly Band
TTITLE18=Clean Up  - Lolene
TTITLE19=I Ain´t Changed A Bit  - Marston Ferry
TTITLE20=Loving All Night - Patty Loveless
TTITLE21=Tell Me Why  - Richard Frankz
TTITLE22=Walter  - Charlie Robison
EXTD=
EXTT0=
EXTT1=
EXTT2=
EXTT3=
EXTT4=
EXTT5=
EXTT6=
EXTT7=
EXTT8=
EXTT9=
EXTT10=
EXTT11=
EXTT12=
EXTT13=
EXTT14=
EXTT15=
EXTT16=
EXTT17=
EXTT18=
EXTT19=
EXTT20=
EXTT21=
EXTT22=
PLAYORDER=
